# xmcd
#
# Track frame offsets:
#	187
#	16050
#	35287
#	52937
#	65325
#	77550
#	98100
#	105812
#	126037
#	143375
#	156612
#	173562
#	188112
#	204112
#	217412
#	248812
#	265812
#	290437
#	305637
#
# Disc length: 4352 seconds
#
# Revision: 0
# Processed by: cddbd v1.4PL0 Copyright (c) Steve Scherf et al.
# Submitted via: audiograbber 1.81.03
#
DISCID=f910fe13
DTITLE=Kingsnakes - 19 Lucky Strikes
DYEAR=1989
DGENRE=Blues
TTITLE0=Diving Duck Blues
TTITLE1=What have I done wrong
TTITLE2=Another fire burning
TTITLE3=Blue Monday
TTITLE4=Love you love you
TTITLE5=The Heat
TTITLE6=Peachtree
TTITLE7=Hardlife Boogie
TTITLE8=Red Beans
TTITLE9=Cissy Strut
TTITLE10=Boom Boom
TTITLE11=She's Tough
TTITLE12=Take a chance
TTITLE13=For you my love
TTITLE14=If you can't get what you want
TTITLE15=The Parrot
TTITLE16=(Please) tell me partner
TTITLE17=Down on love
TTITLE18=Talk to me
EXTD=Blue Wave productions NY
EXTT0=
EXTT1=
EXTT2=
EXTT3=
EXTT4=
EXTT5=
EXTT6=
EXTT7=
EXTT8=
EXTT9=
EXTT10=
EXTT11=
EXTT12=
EXTT13=
EXTT14=
EXTT15=
EXTT16=
EXTT17=
EXTT18=
PLAYORDER=
